<svg width="128" height="64" viewBox="0 0 33.866666 16.933333" id="svg5" inkscape:version="1.2.2 (732a01da63, 2022-12-09)" sodipodi:docname="BeCG.svg" inkscape:export-filename="BeCG.png" inkscape:export-xdpi="96" inkscape:export-ydpi="96" xmlns:inkscape="http://www.inkscape.org/namespaces/inkscape" xmlns:sodipodi="http://sodipodi.sourceforge.net/DTD/sodipodi-0.dtd" xmlns="http://www.w3.org/2000/svg" xmlns:svg="http://www.w3.org/2000/svg" xmlns:rdf="http://www.w3.org/1999/02/22-rdf-syntax-ns#" xmlns:cc="http://creativecommons.org/ns#" xmlns:dc="http://purl.org/dc/elements/1.1/"><title id="title1213">BeCD_logo</title><sodipodi:namedview id="namedview7" pagecolor="#ffffff" bordercolor="#000000" borderopacity=".25" inkscape:showpageshadow="2" inkscape:pageopacity="0" inkscape:pagecheckerboard="0" inkscape:deskcolor="#d1d1d1" inkscape:document-units="px" showgrid="true" inkscape:zoom="10.265625" inkscape:cx="61.856925" inkscape:cy="32.048706" inkscape:window-width="1920" inkscape:window-height="1017" inkscape:window-x="-8" inkscape:window-y="-8" inkscape:window-maximized="1" inkscape:current-layer="layer1"><inkscape:grid type="xygrid" id="grid132"/></sodipodi:namedview><defs id="defs2"/><g inkscape:label="Calque 1" inkscape:groupmode="layer" id="layer1"><path id="path1738" style="fill:none;stroke:#000;stroke-width:1.85208;stroke-linecap:round;stroke-dasharray:none;stroke-opacity:1" d="m28.43799 7.8843754 1.669063-567e-7m2e-6 103e-7c.687513-4e-7 1.244853.6510785 1.244853 1.4542256m-5.553109.0V5.7589218m5.549186 3.5796328c0 1.1574224-.528542 2.2269244-1.386529 2.8056344-.857986.57871-1.915069.57871-2.773055.0-.857987-.578711-1.386528-1.648212-1.386528-2.8056344m-.005-3.5796328c0-1.7923748 1.243808-3.2453818 2.778124-3.2453823 1.534316-8e-7 2.778126 1.4530066 2.778126 3.2453823" sodipodi:nodetypes="cccccccssccsc"/><path id="path1744" style="fill:none;stroke:#000;stroke-width:1.85208;stroke-linecap:round;stroke-dasharray:none;stroke-opacity:1" d="m17.596715 9.3385556v-3.579634m5.549191 3.579634a2.7730581 3.2396655.0 01-1.386529 2.8056324 2.7730581 3.2396655.0 01-2.773059.0 2.7730581 3.2396655.0 01-1.386529-2.8056324m-.005-3.579634a2.7781272 3.2453822.0 012.778125-3.2453821 2.7781272 3.2453822.0 012.778128 3.2453821"/><path id="path3443" style="fill:none;stroke:#000;stroke-width:1.85208;stroke-linecap:butt;stroke-dasharray:none;stroke-opacity:1" d="m3.3285384 12.567771 2.561165 2e-6M5.889628 7.54066c1.3501975.0 2.4447488 1.125357 2.4447488 2.513556-1e-6 1.388197-1.0945513 2.513554-2.4447488 2.513554M3.3285384 7.540649l2.561165 3e-6M5.889628 2.513544c1.3501975.0 2.4447488 1.125357 2.4447488 2.513555S7.2398255 7.540653 5.889628 7.540653M3.3285384 2.51354l2.561165 3e-6M2.5135461 13.493751 2.5135401 1.5875" sodipodi:nodetypes="cccsccccsccccc"/><path id="path3622" style="fill:none;fill-opacity:1;stroke:#000;stroke-width:1.32292;stroke-linecap:round;stroke-dasharray:none;stroke-opacity:1" d="M10.715626 10.584944l4.497917-2.0474054M10.715626 10.63447V9.4669846m4.497913 2.2642004a2.4104239 2.1934295.0 01-2.711352 1.021976 2.4104239 2.1934295.0 01-1.786561-2.11869m1e-6-1.1673844a2.4104239 2.1897545.0 011.78656-2.1151402 2.4104239 2.1897545.0 012.711352 1.0202631"/></g></svg>