<?xml version="1.0" encoding="UTF-8" standalone="no"?>
<!-- Created with Inkscape (http://www.inkscape.org/) -->

<svg
   width="128"
   height="64"
   viewBox="0 0 33.866666 16.933333"
   version="1.1"
   id="svg5"
   inkscape:version="1.2.2 (732a01da63, 2022-12-09)"
   sodipodi:docname="BeCG-couleur.svg"
   inkscape:export-filename="BeCG.png"
   inkscape:export-xdpi="96"
   inkscape:export-ydpi="96"
   xmlns:inkscape="http://www.inkscape.org/namespaces/inkscape"
   xmlns:sodipodi="http://sodipodi.sourceforge.net/DTD/sodipodi-0.dtd"
   xmlns:xlink="http://www.w3.org/1999/xlink"
   xmlns="http://www.w3.org/2000/svg"
   xmlns:svg="http://www.w3.org/2000/svg"
   xmlns:rdf="http://www.w3.org/1999/02/22-rdf-syntax-ns#"
   xmlns:cc="http://creativecommons.org/ns#"
   xmlns:dc="http://purl.org/dc/elements/1.1/">
  <title
     id="title1213">BeCD_logo</title>
  <sodipodi:namedview
     id="namedview7"
     pagecolor="#ffffff"
     bordercolor="#000000"
     borderopacity="0.25"
     inkscape:showpageshadow="2"
     inkscape:pageopacity="0.0"
     inkscape:pagecheckerboard="0"
     inkscape:deskcolor="#d1d1d1"
     inkscape:document-units="px"
     showgrid="true"
     inkscape:zoom="7.2588931"
     inkscape:cx="53.03839"
     inkscape:cy="34.302751"
     inkscape:window-width="1920"
     inkscape:window-height="1017"
     inkscape:window-x="-8"
     inkscape:window-y="-8"
     inkscape:window-maximized="1"
     inkscape:current-layer="layer1">
    <inkscape:grid
       type="xygrid"
       id="grid132" />
  </sodipodi:namedview>
  <defs
     id="defs2">
    <linearGradient
       inkscape:collect="always"
       id="linearGradient1039">
      <stop
         style="stop-color:#ff0000;stop-opacity:1;"
         offset="0"
         id="stop1035" />
      <stop
         style="stop-color:#ff7f1a;stop-opacity:1;"
         offset="0.15666577"
         id="stop1856" />
      <stop
         style="stop-color:#ffff27;stop-opacity:1;"
         offset="0.33009514"
         id="stop1858" />
      <stop
         style="stop-color:#00ff00;stop-opacity:1;"
         offset="0.49631745"
         id="stop1860" />
      <stop
         style="stop-color:#0000ff;stop-opacity:1;"
         offset="0.64606464"
         id="stop1862" />
      <stop
         style="stop-color:#7f00ff;stop-opacity:1;"
         offset="0.83476287"
         id="stop1864" />
      <stop
         style="stop-color:#ff00ff;stop-opacity:1;"
         offset="1"
         id="stop1037" />
    </linearGradient>
    <linearGradient
       inkscape:collect="always"
       xlink:href="#linearGradient1039"
       id="linearGradient1041"
       x1="1.8953754"
       y1="13.194734"
       x2="32.075596"
       y2="1.822477"
       gradientUnits="userSpaceOnUse" />
  </defs>
  <g
     inkscape:label="Calque 1"
     inkscape:groupmode="layer"
     id="layer1">
    <path
       id="path1738"
       style="color:#000000;fill:url(#linearGradient1041);stroke-linecap:round;fill-opacity:1;opacity:1;stroke:#000000;stroke-opacity:1;stroke-width:0.13229166;stroke-dasharray:none"
       d="M 1.5880167 1.5880167 L 1.5880167 13.494266 L 3.3279622 13.494266 L 3.4395833 13.494266 L 5.8885293 13.494266 L 5.8905964 13.494266 C 7.7544253 13.493166 9.2598984 11.928977 9.2598997 10.054683 C 9.2598997 9.0600752 8.8189764 8.173864 8.1426553 7.5411416 C 8.8193943 6.9083902 9.2598997 6.0225589 9.2598997 5.0276 C 9.2598997 3.1533041 7.7544253 1.5891304 5.8905964 1.5880167 L 5.8885293 1.5880167 L 3.4395833 1.5880167 L 3.3279622 1.5880167 L 1.5880167 1.5880167 z M 20.372916 1.5880167 C 18.253961 1.5880187 16.667716 3.5390718 16.667716 5.759855 A 0.92603999 0.92603999 0 0 0 16.669783 5.759855 A 0.92603999 0.92603999 0 0 0 16.669783 5.7619221 L 16.669783 9.3379311 A 0.92603999 0.92603999 0 0 0 16.677535 9.3591185 C 16.684235 10.790088 17.324326 12.140036 18.46864 12.911873 C 19.618958 13.68776 21.126875 13.68776 22.277193 12.911873 C 23.42751 12.135987 24.072432 10.777269 24.072432 9.3379311 A 0.92603999 0.92603999 0 0 0 23.14639 8.4118895 A 0.92603999 0.92603999 0 0 0 22.220865 9.3379311 C 22.220865 10.21343 21.807768 10.995551 21.242114 11.377083 C 20.67646 11.758616 20.069373 11.758616 19.503719 11.377083 C 18.938065 10.995551 18.525484 10.21343 18.525484 9.3379311 A 0.92603999 0.92603999 0 0 0 18.523417 9.333797 L 18.523417 5.759855 A 0.92603999 0.92603999 0 0 0 18.523417 5.7593383 A 0.92603999 0.92603999 0 0 0 18.523417 5.7588215 A 0.92603999 0.92603999 0 0 0 18.523417 5.7583047 A 0.92603999 0.92603999 0 0 0 18.523417 5.757788 A 0.92603999 0.92603999 0 0 0 18.523417 5.7572712 A 0.92603999 0.92603999 0 0 0 18.523417 5.7567544 A 0.92603999 0.92603999 0 0 0 18.523417 5.7562377 A 0.92603999 0.92603999 0 0 0 18.523417 5.7557209 C 18.525617 4.3944352 19.424408 3.4395842 20.372916 3.4395833 C 21.322588 3.439583 22.224483 4.3958964 22.224483 5.759855 A 0.92603999 0.92603999 0 0 0 23.150524 6.6853799 A 0.92603999 0.92603999 0 0 0 24.076049 5.759855 C 24.076049 3.5390701 22.491873 1.588016 20.372916 1.5880167 z M 28.573966 1.5880167 C 26.45501 1.5880174 24.87135 3.5390714 24.87135 5.759855 C 24.872014 5.761155 24.8722 5.7621724 24.8729 5.7634724 L 24.8729 9.3379311 C 24.8742 9.3411911 24.875734 9.3444997 24.877034 9.3477497 C 24.880134 10.783272 25.522629 12.137835 26.670206 12.911873 C 27.820522 13.687759 29.328442 13.687759 30.478759 12.911873 C 31.627384 12.137129 32.269523 10.780598 32.271415 9.3436155 C 32.273415 9.3416755 32.275616 9.3398911 32.277616 9.3379311 C 32.277616 9.3292811 32.269964 9.3233137 32.269864 9.3146767 C 32.282314 7.7856245 31.338866 6.9755205 30.107206 6.9587482 L 28.43754 6.9587482 C 27.926305 6.9588912 27.511641 7.3735548 27.511498 7.8847899 C 27.511641 8.396025 27.926305 8.8101718 28.43754 8.8103148 L 30.107206 8.8103148 C 30.209348 8.8103147 30.420968 8.9648154 30.423982 9.333797 C 30.423312 9.335097 30.422615 9.3366311 30.421915 9.3379311 C 30.421915 10.213432 30.008817 10.995551 29.443163 11.377083 C 28.877511 11.758615 28.272488 11.758615 27.706835 11.377083 C 27.141182 10.99555 26.728601 10.213433 26.728601 9.3379311 C 26.727401 9.3314111 26.725866 9.3247901 26.724466 9.3182941 L 26.724466 5.759855 C 26.724469 5.758555 26.724469 5.7570209 26.724466 5.7557209 C 26.726666 4.3944335 27.625459 3.4395836 28.573966 3.4395833 C 29.523636 3.4395828 30.427599 4.3958959 30.427599 5.759855 C 30.427742 6.2710905 30.842406 6.6852375 31.353641 6.6853799 C 31.864877 6.6852369 32.279023 6.2710901 32.279166 5.759855 C 32.279166 3.53907 30.692922 1.5880156 28.573966 1.5880167 z M 3.4395833 3.4395833 L 5.8885293 3.4395833 L 5.8905964 3.4395833 C 6.7253582 3.4406433 7.4083332 4.126868 7.4083332 5.0276 C 7.4083332 5.9283331 6.7253598 6.6140448 5.8905964 6.6151 L 5.8885293 6.6151 L 3.4395833 6.6151 L 3.4395833 3.4395833 z M 13.090674 6.6145832 C 12.843056 6.6177968 12.592686 6.6489812 12.345499 6.7091511 C 11.027174 7.0300569 10.054683 8.149481 10.054683 9.4666054 C 10.075683 9.8945063 9.9803914 10.158288 10.111527 10.785388 C 10.46361 12.030864 11.345801 13.101223 12.345499 13.396598 C 13.664195 13.718133 15.060395 13.207109 15.771647 12.086084 C 15.968349 11.777648 15.877378 11.368025 15.568558 11.171928 C 15.259614 10.975588 14.849856 11.067577 14.654402 11.377083 C 14.274686 11.975564 13.447037 12.30376 12.658142 12.111405 C 12.007942 11.952869 11.635832 11.482669 11.498006 10.956954 L 15.48846 9.1384601 C 15.739649 9.0124182 15.883545 8.7417808 15.847611 8.4630491 C 15.875271 8.3102723 15.848512 8.1524958 15.771647 8.0175983 C 15.193497 7.1078872 14.163682 6.6006574 13.090674 6.6145832 z M 13.006441 7.9493854 C 13.413845 7.9427116 13.792882 8.0939562 14.121102 8.3085366 L 11.377083 9.5565224 L 11.377083 9.4666054 C 11.377083 8.8015435 11.868878 8.1864657 12.658142 7.9943439 C 12.776217 7.9656022 12.892368 7.9512541 13.006441 7.9493854 z M 3.4395833 8.4666665 L 5.8885293 8.4666665 L 5.8905964 8.4666665 C 6.7253582 8.4677265 7.4083332 9.1539493 7.4083332 10.054683 C 7.4083326 10.955415 6.7253594 11.641645 5.8905964 11.6427 L 5.8885293 11.6427 L 3.4395833 11.6427 L 3.4395833 8.4666665 z " />
  </g>
  <metadata
     id="metadata1211">
    <rdf:RDF>
      <cc:Work
         rdf:about="">
        <dc:title>BeCD_logo</dc:title>
        <dc:creator>
          <cc:Agent>
            <dc:title>GauthierBrière</dc:title>
          </cc:Agent>
        </dc:creator>
        <dc:description>Logo Balance électronique Centre de Gravité pour modèle réduit d'avion.</dc:description>
      </cc:Work>
    </rdf:RDF>
  </metadata>
</svg>
