<svg width="128" height="64" viewBox="0 0 33.866666 16.933333" id="svg5" inkscape:version="1.2.2 (732a01da63, 2022-12-09)" sodipodi:docname="BeCG-couleur.svg" inkscape:export-filename="BeCG.png" inkscape:export-xdpi="96" inkscape:export-ydpi="96" xmlns:inkscape="http://www.inkscape.org/namespaces/inkscape" xmlns:sodipodi="http://sodipodi.sourceforge.net/DTD/sodipodi-0.dtd" xmlns:xlink="http://www.w3.org/1999/xlink" xmlns="http://www.w3.org/2000/svg" xmlns:svg="http://www.w3.org/2000/svg" xmlns:rdf="http://www.w3.org/1999/02/22-rdf-syntax-ns#" xmlns:cc="http://creativecommons.org/ns#" xmlns:dc="http://purl.org/dc/elements/1.1/"><title id="title1213">BeCD_logo</title><sodipodi:namedview id="namedview7" pagecolor="#ffffff" bordercolor="#000000" borderopacity=".25" inkscape:showpageshadow="2" inkscape:pageopacity="0" inkscape:pagecheckerboard="0" inkscape:deskcolor="#d1d1d1" inkscape:document-units="px" showgrid="true" inkscape:zoom="7.2588931" inkscape:cx="53.03839" inkscape:cy="34.302751" inkscape:window-width="1920" inkscape:window-height="1017" inkscape:window-x="-8" inkscape:window-y="-8" inkscape:window-maximized="1" inkscape:current-layer="layer1"><inkscape:grid type="xygrid" id="grid132"/></sodipodi:namedview><defs id="defs2"><linearGradient inkscape:collect="always" id="linearGradient1039"><stop style="stop-color:#ff0000;stop-opacity:1" offset="0" id="stop1035"/><stop style="stop-color:#ff7f1a;stop-opacity:1" offset=".15666577" id="stop1856"/><stop style="stop-color:#ffff27;stop-opacity:1" offset=".33009514" id="stop1858"/><stop style="stop-color:#00ff00;stop-opacity:1" offset=".49631745" id="stop1860"/><stop style="stop-color:#0000ff;stop-opacity:1" offset=".64606464" id="stop1862"/><stop style="stop-color:#7f00ff;stop-opacity:1" offset=".83476287" id="stop1864"/><stop style="stop-color:#ff00ff;stop-opacity:1" offset="1" id="stop1037"/></linearGradient><linearGradient inkscape:collect="always" xlink:href="#linearGradient1039" id="linearGradient1041" x1="1.8953754" y1="13.194734" x2="32.075596" y2="1.822477" gradientUnits="userSpaceOnUse"/></defs><g inkscape:label="Calque 1" inkscape:groupmode="layer" id="layer1"><path id="path1738" style="color:#000;fill:url(#linearGradient1041);stroke-linecap:round;fill-opacity:1;opacity:1;stroke:#000;stroke-opacity:1;stroke-width:.13229166;stroke-dasharray:none" d="M1.5880167 1.5880167V13.494266H3.3279622h.1116211 2.448946H5.8905964C7.7544253 13.493166 9.2598984 11.928977 9.2598997 10.054683c0-.994607800000001-.4409233-1.880819-1.1172444-2.5135414C8.8193943 6.9083902 9.2598997 6.0225589 9.2598997 5.0276c0-1.8742959-1.5054744-3.4384696-3.3693033-3.4395833H5.8885293 3.4395833 3.3279622 1.5880167zm18.7848993.0C18.253961 1.5880187 16.667716 3.5390718 16.667716 5.759855A.92603999.92603999.0 0016.669783 5.759855.92603999.92603999.0 0016.669783 5.7619221v3.576009A.92603999.92603999.0 0016.677535 9.3591185C16.684235 10.790088 17.324326 12.140036 18.46864 12.911873 19.618958 13.68776 21.126875 13.68776 22.277193 12.911873c1.150317-.775886 1.795239-2.134604 1.795239-3.5739419A.92603999.92603999.0 0023.14639 8.4118895.92603999.92603999.0 0022.220865 9.3379311C22.220865 10.21343 21.807768 10.995551 21.242114 11.377083 20.67646 11.758616 20.069373 11.758616 19.503719 11.377083 18.938065 10.995551 18.525484 10.21343 18.525484 9.3379311A.92603999.92603999.0 0018.523417 9.333797V5.759855A.92603999.92603999.0 0018.523417 5.7593383.92603999.92603999.0 0018.523417 5.7588215.92603999.92603999.0 0018.523417 5.7583047.92603999.92603999.0 0018.523417 5.757788.92603999.92603999.0 0018.523417 5.7572712.92603999.92603999.0 0018.523417 5.7567544.92603999.92603999.0 0018.523417 5.7562377.92603999.92603999.0 0018.523417 5.7557209C18.525617 4.3944352 19.424408 3.4395842 20.372916 3.4395833 21.322588 3.439583 22.224483 4.3958964 22.224483 5.759855A.92603999.92603999.0 0023.150524 6.6853799a.92603999.92603999.0 00.925525-.9255249c0-2.2207849-1.584176-4.171839-3.703133-4.1718383zm8.20105.0C26.45501 1.5880174 24.87135 3.5390714 24.87135 5.759855 24.872014 5.761155 24.8722 5.7621724 24.8729 5.7634724V9.3379311C24.8742 9.3411911 24.875734 9.3444997 24.877034 9.3477497 24.880134 10.783272 25.522629 12.137835 26.670206 12.911873c1.150316.775886 2.658236.775886 3.808553.0 1.148625-.774744 1.790764-2.131275 1.792656-3.5682575C32.273415 9.3416755 32.275616 9.3398911 32.277616 9.3379311 32.277616 9.3292811 32.269964 9.3233137 32.269864 9.3146767 32.282314 7.7856245 31.338866 6.9755205 30.107206 6.9587482H28.43754C27.926305 6.9588912 27.511641 7.3735548 27.511498 7.8847899 27.511641 8.396025 27.926305 8.8101718 28.43754 8.8103148h1.669666C30.209348 8.8103147 30.420968 8.9648154 30.423982 9.333797 30.423312 9.335097 30.422615 9.3366311 30.421915 9.3379311 30.421915 10.213432 30.008817 10.995551 29.443163 11.377083c-.565652.381532-1.170675.381532-1.736328.0C27.141182 10.99555 26.728601 10.213433 26.728601 9.3379311 26.727401 9.3314111 26.725866 9.3247901 26.724466 9.3182941V5.759855C26.724469 5.758555 26.724469 5.7570209 26.724466 5.7557209 26.726666 4.3944335 27.625459 3.4395836 28.573966 3.4395833 29.523636 3.4395828 30.427599 4.3958959 30.427599 5.759855 30.427742 6.2710905 30.842406 6.6852375 31.353641 6.6853799 31.864877 6.6852369 32.279023 6.2710901 32.279166 5.759855c0-2.220785-1.586244-4.1718394-3.7052-4.1718383zM3.4395833 3.4395833h2.448946H5.8905964C6.7253582 3.4406433 7.4083332 4.126868 7.4083332 5.0276c0 .9007331-.682973400000001 1.5864448-1.5177368 1.5875H5.8885293 3.4395833V3.4395833zM13.090674 6.6145832C12.843056 6.6177968 12.592686 6.6489812 12.345499 6.7091511c-1.318325.3209058-2.290816 1.4403299-2.290816 2.7574543C10.075683 9.8945063 9.9803914 10.158288 10.111527 10.785388 10.46361 12.030864 11.345801 13.101223 12.345499 13.396598 13.664195 13.718133 15.060395 13.207109 15.771647 12.086084c.196702-.308436.105731-.718059-.203089-.914156C15.259614 10.975588 14.849856 11.067577 14.654402 11.377083 14.274686 11.975564 13.447037 12.30376 12.658142 12.111405c-.6502-.158536-1.02231-.628736-1.160136-1.154451L15.48846 9.1384601C15.739649 9.0124182 15.883545 8.7417808 15.847611 8.4630491 15.875271 8.3102723 15.848512 8.1524958 15.771647 8.0175983 15.193497 7.1078872 14.163682 6.6006574 13.090674 6.6145832zM13.006441 7.9493854C13.413845 7.9427116 13.792882 8.0939562 14.121102 8.3085366L11.377083 9.5565224V9.4666054c0-.665061900000001.491795-1.2801397 1.281059-1.4722615C12.776217 7.9656022 12.892368 7.9512541 13.006441 7.9493854zM3.4395833 8.4666665h2.448946H5.8905964C6.7253582 8.4677265 7.4083332 9.1539493 7.4083332 10.054683 7.4083326 10.955415 6.7253594 11.641645 5.8905964 11.6427H5.8885293 3.4395833V8.4666665z"/></g></svg>