<svg width="96" height="96" viewBox="0 0 25.399999 25.399999" id="svg5" inkscape:version="1.2.2 (b0a8486541, 2022-12-01)" sodipodi:docname="favicon.svg" inkscape:export-filename="BeCG.png" inkscape:export-xdpi="96" inkscape:export-ydpi="96" xmlns:inkscape="http://www.inkscape.org/namespaces/inkscape" xmlns:sodipodi="http://sodipodi.sourceforge.net/DTD/sodipodi-0.dtd" xmlns:xlink="http://www.w3.org/1999/xlink" xmlns="http://www.w3.org/2000/svg" xmlns:svg="http://www.w3.org/2000/svg" xmlns:rdf="http://www.w3.org/1999/02/22-rdf-syntax-ns#" xmlns:cc="http://creativecommons.org/ns#" xmlns:dc="http://purl.org/dc/elements/1.1/"><title id="title1213">BeCD_logo</title><sodipodi:namedview id="namedview7" pagecolor="#ffffff" bordercolor="#000000" borderopacity=".25" inkscape:showpageshadow="2" inkscape:pageopacity="0" inkscape:pagecheckerboard="0" inkscape:deskcolor="#d1d1d1" inkscape:document-units="px" showgrid="true" inkscape:zoom="7.2588931" inkscape:cx="48.836647" inkscape:cy="48.216718" inkscape:window-width="1920" inkscape:window-height="1023" inkscape:window-x="0" inkscape:window-y="0" inkscape:window-maximized="1" inkscape:current-layer="layer1"><inkscape:grid type="xygrid" id="grid132" originx="0" originy="0"/></sodipodi:namedview><defs id="defs2"><linearGradient inkscape:collect="always" id="linearGradient1039"><stop style="stop-color:#ff0000;stop-opacity:1" offset="0" id="stop1035"/><stop style="stop-color:#ff7f1a;stop-opacity:1" offset=".15666577" id="stop1856"/><stop style="stop-color:#ffff27;stop-opacity:1" offset=".33009514" id="stop1858"/><stop style="stop-color:#00ff00;stop-opacity:1" offset=".49631745" id="stop1860"/><stop style="stop-color:#0000ff;stop-opacity:1" offset=".64606464" id="stop1862"/><stop style="stop-color:#7f00ff;stop-opacity:1" offset=".83476287" id="stop1864"/><stop style="stop-color:#ff00ff;stop-opacity:1" offset="1" id="stop1037"/></linearGradient><linearGradient inkscape:collect="always" xlink:href="#linearGradient1039" id="linearGradient1041" x1="16.997444" y1="11.042192" x2="32.093822" y2="4.5561924" gradientUnits="userSpaceOnUse" gradientTransform="matrix(1.5422756,0,0,1.6669923,-25.044749,0.13097184)"/></defs><g inkscape:label="Calque 1" inkscape:groupmode="layer" id="layer1"><path id="path325" style="color:#000;opacity:1;fill:url(#linearGradient1041);fill-opacity:1;stroke:#000;stroke-width:.793751;stroke-linecap:round;stroke-dasharray:none;stroke-opacity:1" d="m6.3759041 2.7781833c-3.2680122 34e-7-5.71443946 3.2523938-5.71443946 6.954421a1.4282091 1.5437014.0 00.003244.0 1.4282091 1.5437014.0 000 .00353v5.9611787a1.4282091 1.5437014.0 00.0120293.03533c.0103333 2.385414.99753006 4.635765 2.76237766 5.922413 1.7741076 1.293396 4.0997312 1.293396 5.8738395.0 1.7741049-1.293395 2.7687509-3.558369 2.7687509-5.957733A1.4282091 1.5437014.0 0010.65337 14.153602 1.4282091 1.5437014.0 009.2259564 15.697306c0 1.459448-.6371098 2.763239-1.5095048 3.399251-.8723941.636012-1.8086896.636012-2.6810841.0C4.1629688 18.460526 3.5266551 17.156735 3.5266551 15.697286a1.4282091 1.5437014.0 00-.00324-.0069V9.7326722a1.4282091 1.5437014.0 000-842e-6 1.4282091 1.5437014.0 000-8421e-7 1.4282091 1.5437014.0 000-842e-6 1.4282091 1.5437014.0 000-8421e-7 1.4282091 1.5437014.0 000-8421e-7 1.4282091 1.5437014.0 000-842e-6 1.4282091 1.5437014.0 000-842e-6 1.4282091 1.5437014.0 000-8421e-7c.0034-2.2692528 1.3895779-3.8609814 2.8524377-3.8609832 1.4646566-9e-7 2.8556283 1.5941669 2.8556283 3.8678745a1.4282091 1.5437014.0 001.4282099 1.5428739 1.4282091 1.5437014.0 001.427416-1.5428429c0-3.7020304-2.4432363-6.9544226-5.7112542-6.9544214zm12.6482819.0c-3.268016 11e-7-5.710455 3.2523929-5.710455 6.954421 978e-6.00218.0014.00386.0024.00604V15.69724c.0021.0057.0043.01101.0064.01633.0048 2.393004.995687 4.651048 2.765565 5.941365 1.774105 1.293394 4.099734 1.293394 5.873839.0 1.771497-1.291494 2.761852-3.552819 2.76477-5.948256.003-.0032.0066-.0062.0095-.0095.0-.01449-.01187-.02436-.01203-.03876.0192-2.548917-1.435856-3.899354-3.335416-3.927315h-2.575035c-.788464 242e-6-1.42799.69148-1.42821 1.543704 22e-5.852225.639746 1.542605 1.42821 1.542844h2.575085c.157532.0.483909.25755.488558.872641-979e-6.0021-.0022.0048-.0032.0069.0 1.459454-.637112 2.763239-1.509505 3.399251-.872393.63601-1.805504.63601-2.677898.0-.872392-.636014-1.508707-1.939796-1.508707-3.399251-.0019-.01084-.0042-.0219-.0064-.03273V9.7325273c5e-6-.00218 5e-6-.0047.0-.00687.0033-2.2692554 1.389579-3.8609825 2.852439-3.8609825 1.464652-8e-7 2.858813 1.5941652 2.858813 3.8678738 221e-6.8522274.639746 1.5426084 1.42821 1.5428444.788468-242e-6 1.427196-.690617 1.427415-1.5428444.0-3.7020305-2.446426-6.9544231-5.714441-6.9544211z"/></g></svg>