<?xml version="1.0" encoding="UTF-8" standalone="no"?>
<!-- Created with Inkscape (http://www.inkscape.org/) -->

<svg
   width="96"
   height="96"
   viewBox="0 0 25.399999 25.399999"
   version="1.1"
   id="svg5"
   inkscape:version="1.2.2 (b0a8486541, 2022-12-01)"
   sodipodi:docname="favicon.svg"
   inkscape:export-filename="BeCG.png"
   inkscape:export-xdpi="96"
   inkscape:export-ydpi="96"
   xml:space="preserve"
   xmlns:inkscape="http://www.inkscape.org/namespaces/inkscape"
   xmlns:sodipodi="http://sodipodi.sourceforge.net/DTD/sodipodi-0.dtd"
   xmlns:xlink="http://www.w3.org/1999/xlink"
   xmlns="http://www.w3.org/2000/svg"
   xmlns:svg="http://www.w3.org/2000/svg"
   xmlns:rdf="http://www.w3.org/1999/02/22-rdf-syntax-ns#"
   xmlns:cc="http://creativecommons.org/ns#"
   xmlns:dc="http://purl.org/dc/elements/1.1/"><title
     id="title1213">BeCD_logo</title><sodipodi:namedview
     id="namedview7"
     pagecolor="#ffffff"
     bordercolor="#000000"
     borderopacity="0.25"
     inkscape:showpageshadow="2"
     inkscape:pageopacity="0.0"
     inkscape:pagecheckerboard="0"
     inkscape:deskcolor="#d1d1d1"
     inkscape:document-units="px"
     showgrid="true"
     inkscape:zoom="7.2588931"
     inkscape:cx="48.836647"
     inkscape:cy="48.216718"
     inkscape:window-width="1920"
     inkscape:window-height="1023"
     inkscape:window-x="0"
     inkscape:window-y="0"
     inkscape:window-maximized="1"
     inkscape:current-layer="layer1"><inkscape:grid
       type="xygrid"
       id="grid132"
       originx="0"
       originy="0" /></sodipodi:namedview><defs
     id="defs2"><linearGradient
       inkscape:collect="always"
       id="linearGradient1039"><stop
         style="stop-color:#ff0000;stop-opacity:1;"
         offset="0"
         id="stop1035" /><stop
         style="stop-color:#ff7f1a;stop-opacity:1;"
         offset="0.15666577"
         id="stop1856" /><stop
         style="stop-color:#ffff27;stop-opacity:1;"
         offset="0.33009514"
         id="stop1858" /><stop
         style="stop-color:#00ff00;stop-opacity:1;"
         offset="0.49631745"
         id="stop1860" /><stop
         style="stop-color:#0000ff;stop-opacity:1;"
         offset="0.64606464"
         id="stop1862" /><stop
         style="stop-color:#7f00ff;stop-opacity:1;"
         offset="0.83476287"
         id="stop1864" /><stop
         style="stop-color:#ff00ff;stop-opacity:1;"
         offset="1"
         id="stop1037" /></linearGradient><linearGradient
       inkscape:collect="always"
       xlink:href="#linearGradient1039"
       id="linearGradient1041"
       x1="16.997444"
       y1="11.042192"
       x2="32.093822"
       y2="4.5561924"
       gradientUnits="userSpaceOnUse"
       gradientTransform="matrix(1.5422756,0,0,1.6669923,-25.044749,0.13097184)" /></defs><g
     inkscape:label="Calque 1"
     inkscape:groupmode="layer"
     id="layer1"><path
       id="path325"
       style="color:#000000;opacity:1;fill:url(#linearGradient1041);fill-opacity:1;stroke:#000000;stroke-width:0.793751;stroke-linecap:round;stroke-dasharray:none;stroke-opacity:1"
       d="m 6.3759041,2.7781833 c -3.2680122,3.4e-6 -5.71443946,3.2523938 -5.71443946,6.954421 a 1.4282091,1.5437014 0 0 0 0.003244,0 1.4282091,1.5437014 0 0 0 0,0.00353 v 5.9611787 a 1.4282091,1.5437014 0 0 0 0.0120293,0.03533 c 0.0103333,2.385414 0.99753006,4.635765 2.76237766,5.922413 1.7741076,1.293396 4.0997312,1.293396 5.8738395,0 1.7741049,-1.293395 2.7687509,-3.558369 2.7687509,-5.957733 A 1.4282091,1.5437014 0 0 0 10.65337,14.153602 1.4282091,1.5437014 0 0 0 9.2259564,15.697306 c 0,1.459448 -0.6371098,2.763239 -1.5095048,3.399251 -0.8723941,0.636012 -1.8086896,0.636012 -2.6810841,0 C 4.1629688,18.460526 3.5266551,17.156735 3.5266551,15.697286 a 1.4282091,1.5437014 0 0 0 -0.00324,-0.0069 V 9.7326722 a 1.4282091,1.5437014 0 0 0 0,-8.42e-4 1.4282091,1.5437014 0 0 0 0,-8.421e-4 1.4282091,1.5437014 0 0 0 0,-8.42e-4 1.4282091,1.5437014 0 0 0 0,-8.421e-4 1.4282091,1.5437014 0 0 0 0,-8.421e-4 1.4282091,1.5437014 0 0 0 0,-8.42e-4 1.4282091,1.5437014 0 0 0 0,-8.42e-4 1.4282091,1.5437014 0 0 0 0,-8.421e-4 c 0.0034,-2.2692528 1.3895779,-3.8609814 2.8524377,-3.8609832 1.4646566,-9e-7 2.8556283,1.5941669 2.8556283,3.8678745 a 1.4282091,1.5437014 0 0 0 1.4282099,1.5428739 1.4282091,1.5437014 0 0 0 1.427416,-1.5428429 c 0,-3.7020304 -2.4432363,-6.9544226 -5.7112542,-6.9544214 z m 12.6482819,0 c -3.268016,1.1e-6 -5.710455,3.2523929 -5.710455,6.954421 9.78e-4,0.00218 0.0014,0.00386 0.0024,0.00604 V 15.69724 c 0.0021,0.0057 0.0043,0.01101 0.0064,0.01633 0.0048,2.393004 0.995687,4.651048 2.765565,5.941365 1.774105,1.293394 4.099734,1.293394 5.873839,0 1.771497,-1.291494 2.761852,-3.552819 2.76477,-5.948256 0.003,-0.0032 0.0066,-0.0062 0.0095,-0.0095 0,-0.01449 -0.01187,-0.02436 -0.01203,-0.03876 0.0192,-2.548917 -1.435856,-3.899354 -3.335416,-3.927315 h -2.575035 c -0.788464,2.42e-4 -1.42799,0.69148 -1.42821,1.543704 2.2e-4,0.852225 0.639746,1.542605 1.42821,1.542844 h 2.575085 c 0.157532,0 0.483909,0.25755 0.488558,0.872641 -9.79e-4,0.0021 -0.0022,0.0048 -0.0032,0.0069 0,1.459454 -0.637112,2.763239 -1.509505,3.399251 -0.872393,0.63601 -1.805504,0.63601 -2.677898,0 -0.872392,-0.636014 -1.508707,-1.939796 -1.508707,-3.399251 -0.0019,-0.01084 -0.0042,-0.0219 -0.0064,-0.03273 V 9.7325273 c 5e-6,-0.00218 5e-6,-0.0047 0,-0.00687 0.0033,-2.2692554 1.389579,-3.8609825 2.852439,-3.8609825 1.464652,-8e-7 2.858813,1.5941652 2.858813,3.8678738 2.21e-4,0.8522274 0.639746,1.5426084 1.42821,1.5428444 0.788468,-2.42e-4 1.427196,-0.690617 1.427415,-1.5428444 0,-3.7020305 -2.446426,-6.9544231 -5.714441,-6.9544211 z" /></g><metadata
     id="metadata1211"><rdf:RDF><cc:Work
         rdf:about=""><dc:title>BeCD_logo</dc:title><dc:creator><cc:Agent><dc:title>GauthierBrière</dc:title></cc:Agent></dc:creator><dc:description>Logo Balance électronique Centre de Gravité pour modèle réduit d'avion.</dc:description></cc:Work></rdf:RDF></metadata></svg>
