<svg xmlns:dc="http://purl.org/dc/elements/1.1/" xmlns:cc="http://creativecommons.org/ns#" xmlns:rdf="http://www.w3.org/1999/02/22-rdf-syntax-ns#" xmlns:svg="http://www.w3.org/2000/svg" xmlns="http://www.w3.org/2000/svg" xmlns:sodipodi="http://sodipodi.sourceforge.net/DTD/sodipodi-0.dtd" xmlns:inkscape="http://www.inkscape.org/namespaces/inkscape" width="900" height="600" viewBox="0 0 238.125 158.75" id="svg30" sodipodi:docname="en_EN.svg" inkscape:version="0.92.3 (2405546, 2018-03-11)"><defs id="defs34"/><sodipodi:namedview pagecolor="#ffffff" bordercolor="#666666" borderopacity="1" objecttolerance="10" gridtolerance="10" guidetolerance="10" inkscape:pageopacity="0" inkscape:pageshadow="2" inkscape:window-width="640" inkscape:window-height="480" id="namedview32" showgrid="false" fit-margin-top="0" fit-margin-left="0" fit-margin-right="0" fit-margin-bottom="0" units="px" inkscape:zoom=".39272467" inkscape:cx="982.63049" inkscape:cy="558.01706" inkscape:current-layer="svg30"/><g id="g875" transform="scale(0.47625,0.52916666)" style="stroke-width:1.99198592"><g style="fill:#006;fill-opacity:1;stroke:none;stroke-width:1.99198592" transform="matrix(1,0,0,-1,250,150)" id="Face"><path inkscape:connector-curvature="0" style="fill:#006;fill-opacity:1;fill-rule:evenodd;stroke:none;stroke-width:.69719511;stroke-miterlimit:4;stroke-dasharray:none" d="M-250 150H250V-150H-250z" id="Face_f0000"/><title id="title3">Face</title></g><g style="fill:#fff;fill-opacity:1;stroke:none;stroke-width:1.99198592" transform="matrix(1,0,0,-1,250,150)" id="Face001"><path inkscape:connector-curvature="0" style="fill:#fff;fill-opacity:1;fill-rule:evenodd;stroke:none;stroke-width:.69719511;stroke-miterlimit:4;stroke-dasharray:none" d="M-250-115.01429-141.64285-50H-250V50h108.35715L-250 115.01429V150h58.30952L-50 64.985711V150H50V64.985711L191.69048 150H250V115.01429L141.64285 50H250V-50H141.64285L250-115.01429V-150H191.69048L50-64.985711V-150H-50v85.014289L-191.69048-150H-250z" id="Face001_f0000"/><title id="title7">Face001</title></g><g style="fill:#c00;fill-opacity:1;stroke:none;stroke-width:1.99198592" transform="matrix(1,0,0,-1,250,150)" id="Face005"><path inkscape:connector-curvature="0" style="fill:#c00;fill-opacity:1;fill-rule:evenodd;stroke:none;stroke-width:.69719511;stroke-miterlimit:4;stroke-dasharray:none" d="M50 53.323808 211.12699 150H250L83.333333 50H50z" id="Face005_f0000"/><title id="title11">Face005</title></g><g style="fill:#c00;fill-opacity:1;stroke:none;stroke-width:1.99198592" transform="matrix(1,0,0,-1,250,150)" id="Face004"><path inkscape:connector-curvature="0" style="fill:#c00;fill-opacity:1;fill-rule:evenodd;stroke:none;stroke-width:.69719511;stroke-miterlimit:4;stroke-dasharray:none" d="M-250 150-83.333333 50H-122.20635L-250 126.67619z" id="Face004_f0000"/><title id="title15">Face004</title></g><g style="fill:#c00;fill-opacity:1;stroke:none;stroke-width:1.99198592" transform="matrix(1,0,0,-1,250,150)" id="Face002"><path inkscape:connector-curvature="0" style="fill:#c00;fill-opacity:1;fill-rule:evenodd;stroke:none;stroke-width:.69719511;stroke-miterlimit:4;stroke-dasharray:none" d="M-250 30H-30V150H30V30H250V-30H30v-120h-60v120h-220z" id="Face002_f0000"/><title id="title19">Face002</title></g><g style="fill:#c00;fill-opacity:1;stroke:none;stroke-width:1.99198592" transform="matrix(1,0,0,-1,250,150)" id="Face003"><path inkscape:connector-curvature="0" style="fill:#c00;fill-opacity:1;fill-rule:evenodd;stroke:none;stroke-width:.69719511;stroke-miterlimit:4;stroke-dasharray:none" d="m-250-150h38.87301L-50-53.323808V-50h-33.333333z" id="Face003_f0000"/><title id="title23">Face003</title></g><g style="fill:#c00;fill-opacity:1;stroke:none;stroke-width:1.99198592" transform="matrix(1,0,0,-1,250,150)" id="Face006"><path inkscape:connector-curvature="0" style="fill:#c00;fill-opacity:1;fill-rule:evenodd;stroke:none;stroke-width:.69719511;stroke-miterlimit:4;stroke-dasharray:none" d="m250-150v23.32381L122.20635-50H83.333333z" id="Face006_f0000"/><title id="title27">Face006</title></g></g></svg>