<svg width="630" height="200" viewBox="0 0 166.6875 52.916667" id="svg4792" inkscape:version="1.2.2 (732a01da63, 2022-12-09)" sodipodi:docname="profilsetting.svg.2023_11_20_08_56_37.0.svg" xmlns:inkscape="http://www.inkscape.org/namespaces/inkscape" xmlns:sodipodi="http://sodipodi.sourceforge.net/DTD/sodipodi-0.dtd" xmlns:xlink="http://www.w3.org/1999/xlink" xmlns="http://www.w3.org/2000/svg" xmlns:svg="http://www.w3.org/2000/svg"><sodipodi:namedview id="namedview4794" pagecolor="#ffffff" bordercolor="#000000" borderopacity=".25" inkscape:showpageshadow="2" inkscape:pageopacity="0" inkscape:pagecheckerboard="0" inkscape:deskcolor="#d1d1d1" inkscape:document-units="mm" showgrid="true" inkscape:zoom="2.0857143" inkscape:cx="316.91781" inkscape:cy="151.0274" inkscape:window-width="1920" inkscape:window-height="1017" inkscape:window-x="-8" inkscape:window-y="-8" inkscape:window-maximized="1" inkscape:current-layer="layer1"><inkscape:grid type="xygrid" id="grid5276" originx="-24.11113" originy="-69.982292"/></sodipodi:namedview><defs id="defs4789"><marker style="overflow:visible" id="marker6277" refX="0" refY="0" orient="auto-start-reverse" inkscape:stockid="Arrow3" markerWidth="4.2071066" markerHeight="7" viewBox="0 0 4.2071068 7" inkscape:isstock="true" inkscape:collect="always" preserveAspectRatio="xMidYMid"><path style="fill:none;stroke:context-stroke;stroke-width:1;stroke-linecap:round" d="M3-3 0 0 3 3" id="path6275" transform="rotate(180,0.125,0)" sodipodi:nodetypes="ccc"/></marker><marker style="overflow:visible" id="Arrow3" refX="0" refY="0" orient="auto-start-reverse" inkscape:stockid="Arrow3" markerWidth="4.2071066" markerHeight="7" viewBox="0 0 4.2071068 7" inkscape:isstock="true" inkscape:collect="always" preserveAspectRatio="xMidYMid"><path style="fill:none;stroke:context-stroke;stroke-width:1;stroke-linecap:round" d="M3-3 0 0 3 3" id="arrow3" transform="rotate(180,0.125,0)" sodipodi:nodetypes="ccc"/></marker><linearGradient inkscape:collect="always" id="linearGradient5739"><stop style="stop-color:#ff2700;stop-opacity:1" offset="0" id="stop5735"/><stop style="stop-color:#ff7f1a;stop-opacity:1" offset=".16919445" id="stop36377"/><stop style="stop-color:#ffff27;stop-opacity:1" offset=".33271816" id="stop36403"/><stop style="stop-color:#00ff00;stop-opacity:1" offset=".49961764" id="stop36429"/><stop style="stop-color:#0000ff;stop-opacity:1" offset=".67346334" id="stop36455"/><stop style="stop-color:#7f00ff;stop-opacity:1" offset=".82986659" id="stop36481"/><stop style="stop-color:#ff00ff;stop-opacity:1" offset="1" id="stop5737"/></linearGradient><linearGradient inkscape:collect="always" xlink:href="#linearGradient5739" id="linearGradient7546" gradientUnits="userSpaceOnUse" x1="-.0024713948" y1="-.0010061514" x2=".58372909" y2=".030686" gradientTransform="matrix(157.97355,0,0,-166.97089,16.265415,36.146065)"/></defs><g inkscape:label="Calque 1" inkscape:groupmode="layer" id="layer1" transform="translate(-11.90625,-15.875)"><path id="Wire_f0000" d="m16.265415 36.146065.07899-.390545.07899-.231772.157973-.346532.315947-.521166.631894-.80333.631895-.688438 1.263788-1.254853 1.579735-1.276993 1.579736-1.019658 1.579736-.859399 1.579735-.74833 3.159471-1.281285 3.159471-1.096548 3.159471-.93876 3.159471-.804065 3.159471-.690375 3.159471-.584064 3.159471-.476117 3.159471-.371193 3.159471-.281764 3.159471-.209248 3.159471-.153212 3.159471-.11334 3.159471-.08437 3.159471-.0538 3.159471-.01982 3.159471.0176 3.159471.05844 3.159471.1011 3.159471.141625 3.159471.17946 3.159471.214642 3.159471.247116 3.159471.277623 3.159473.307777 3.15947.337816 3.15947.36782 3.15947.397691 3.15948.427079 3.15947.454711 3.15947.480476 3.15947.504302 3.15947.526192 3.15947.546496 3.15947.566432 3.15947.586235 3.15947.605837 3.15947.625222 3.15948.644358 3.15947.663024 3.15947.681175 3.15947.698756 3.15947.715738 3.15947.732484 3.15947.749983 3.15947.768183 1.57974.390111 1.57973.392933 1.57974.394802 1.57973.395671v.200132l-1.57973.06133-1.57974.06133-1.57973.06131-1.57974.06131-3.15947.12264-3.15947.12264-3.15947.12264-3.15947.12264-3.15947.12264-3.15947.122641-3.15947.12264-3.15948.12264-3.15947.12264-3.15947.12264-3.15947.12264-3.15947.12264-3.15947.122657-3.15947.122657-3.15947.122673-3.15947.122641-3.15947.122623-3.15948.12259-3.15947.12254-3.15947.122557-3.15947.12259-3.159473.12269-3.159471.12284-3.159471.123008-3.159471.123007-3.159471.122807-3.159471.122457-3.159471.121872-3.159471.121304-3.159471.121288-3.159471.121989-3.159471.123375-3.159471.125461-3.159471.127182-3.159471.124694-3.159471.117164-3.159471.10459-3.159471.08701-3.159471.06402-3.159471.03433-3.159471-.0024-3.159471-.04627-3.159471-.09763-3.159471-.153463-3.159471-.222372-1.579736-.180746-1.579735-.25448-1.579736-.319833-1.579735-.389593-1.263788-.550837-.631895-.448667-.631894-.630082-.315947-.451038-.157973-.312152-.07899-.212354z" stroke="#191919" stroke-width="0.35 px" style="fill:url(#linearGradient7546);fill-opacity:1;fill-rule:evenodd;stroke-width:.793751;stroke-linecap:square;stroke-miterlimit:4;stroke-dasharray:none"/><path style="fill:#5568ff;fill-opacity:1;stroke:#000;stroke-width:.396875;stroke-linecap:butt;stroke-linejoin:round;stroke-dasharray:none" d="M16.099896 64.095312V36.314063" id="path5820" sodipodi:nodetypes="cc"/><g id="g5886" transform="translate(-1.3229189,-20.571354)"><path style="fill:#fff;fill-opacity:1;stroke:#000;stroke-width:.79375;stroke-linecap:butt;stroke-linejoin:round;stroke-dasharray:none" id="path5874" sodipodi:type="arc" sodipodi:cx="74.083336" sodipodi:cy="51.59375" sodipodi:rx="6" sodipodi:ry="6" sodipodi:start="0" sodipodi:end="1.5707963" sodipodi:arc-type="slice" d="m80.083336 51.59375a6 6 0 01-6 6v-6z"/><path style="fill:#00ac00;fill-opacity:1;stroke:#000;stroke-width:.79375;stroke-linecap:butt;stroke-linejoin:round;stroke-dasharray:none" id="path5876" sodipodi:type="arc" sodipodi:cx="-51.59375" sodipodi:cy="74.083336" sodipodi:rx="6" sodipodi:ry="6" sodipodi:start="0" sodipodi:end="1.5707963" sodipodi:arc-type="slice" d="m-45.59375 74.083336a6 6 0 01-6 6v-6z" transform="rotate(-90)"/><path style="fill:#fff;fill-opacity:1;stroke:#000;stroke-width:.79375;stroke-linecap:butt;stroke-linejoin:round;stroke-dasharray:none" id="path5878" sodipodi:type="arc" sodipodi:cx="-74.083336" sodipodi:cy="-51.59375" sodipodi:rx="6" sodipodi:ry="6" sodipodi:start="0" sodipodi:end="1.5707963" sodipodi:arc-type="slice" d="m-68.083336-51.59375a6 6 0 01-6 6v-6z" transform="scale(-1)"/><path style="fill:#00ac00;fill-opacity:1;stroke:#000;stroke-width:.79375;stroke-linecap:butt;stroke-linejoin:round;stroke-dasharray:none" id="path5880" sodipodi:type="arc" sodipodi:cx="51.59375" sodipodi:cy="-74.083336" sodipodi:rx="6" sodipodi:ry="6" sodipodi:start="0" sodipodi:end="1.5707963" sodipodi:arc-type="slice" d="m57.59375-74.083336a6 6 0 01-6 6v-6z" transform="rotate(90)"/></g><path style="fill:#003f7f;fill-opacity:1;stroke:#000;stroke-width:.396875;stroke-linecap:butt;stroke-linejoin:round;stroke-dasharray:none" d="m37.007621 64.095-1e-6-22.687709" id="path5942" sodipodi:nodetypes="cc"/><path style="fill:#003f7f;fill-opacity:1;stroke:#000;stroke-width:.396875;stroke-linecap:butt;stroke-linejoin:round;stroke-dasharray:none;marker-start:url(#Arrow3);marker-end:url(#marker6277)" d="M16.37012 61.515625H36.743037" id="path5944" sodipodi:nodetypes="cc"/><path style="fill:#003f7f;fill-opacity:1;stroke:#000;stroke-width:.396875;stroke-linecap:butt;stroke-linejoin:round;stroke-dasharray:none;marker-start:url(#Arrow3);marker-end:url(#marker6277)" d="M37.272203 61.515625 149.19095 61.516" id="path274" sodipodi:nodetypes="cc"/><path style="fill:#003f7f;fill-opacity:1;stroke:#000;stroke-width:.396875;stroke-linecap:butt;stroke-linejoin:round;stroke-dasharray:none" d="m149.45554 64.095.0661-26.656459" id="path326" sodipodi:nodetypes="cc"/><path style="fill:#00ac00;fill-opacity:1;stroke:#000;stroke-width:.79375;stroke-linecap:butt;stroke-linejoin:round;stroke-dasharray:none" d="M31.75 52.189063 37.041667 41.60573 42.333333 52.189063z" id="path5731" sodipodi:nodetypes="cccc"/><path style="fill:#00ac00;fill-opacity:1;stroke:#000;stroke-width:.79375;stroke-linecap:square;stroke-linejoin:round;stroke-dasharray:none" d="m144.19792 48.220313 5.29166-10.583334 5.29167 10.583334z" id="path5733" sodipodi:nodetypes="cccc"/></g></svg>