<?xml version="1.0" encoding="UTF-8" standalone="no"?>
<!-- Created with Inkscape (http://www.inkscape.org/) -->

<svg
   width="630"
   height="200"
   viewBox="0 0 166.6875 52.916667"
   version="1.1"
   id="svg4792"
   inkscape:version="1.2.2 (732a01da63, 2022-12-09)"
   sodipodi:docname="profil.svg"
   xml:space="preserve"
   xmlns:inkscape="http://www.inkscape.org/namespaces/inkscape"
   xmlns:sodipodi="http://sodipodi.sourceforge.net/DTD/sodipodi-0.dtd"
   xmlns:xlink="http://www.w3.org/1999/xlink"
   xmlns="http://www.w3.org/2000/svg"
   xmlns:svg="http://www.w3.org/2000/svg"><sodipodi:namedview
     id="namedview4794"
     pagecolor="#ffffff"
     bordercolor="#000000"
     borderopacity="0.25"
     inkscape:showpageshadow="2"
     inkscape:pageopacity="0.0"
     inkscape:pagecheckerboard="0"
     inkscape:deskcolor="#d1d1d1"
     inkscape:document-units="mm"
     showgrid="true"
     inkscape:zoom="1.9710145"
     inkscape:cx="341.95588"
     inkscape:cy="100.45588"
     inkscape:window-width="1920"
     inkscape:window-height="1017"
     inkscape:window-x="-8"
     inkscape:window-y="-8"
     inkscape:window-maximized="1"
     inkscape:current-layer="layer1"><inkscape:grid
       type="xygrid"
       id="grid5276"
       originx="-24.11113"
       originy="-69.982292" /></sodipodi:namedview><defs
     id="defs4789"><marker
       style="overflow:visible"
       id="marker6277"
       refX="0"
       refY="0"
       orient="auto-start-reverse"
       inkscape:stockid="Arrow3"
       markerWidth="4.2071066"
       markerHeight="7"
       viewBox="0 0 4.2071068 7"
       inkscape:isstock="true"
       inkscape:collect="always"
       preserveAspectRatio="xMidYMid"><path
         style="fill:none;stroke:context-stroke;stroke-width:1;stroke-linecap:round"
         d="M 3,-3 0,0 3,3"
         id="path6275"
         transform="rotate(180,0.125,0)"
         sodipodi:nodetypes="ccc" /></marker><marker
       style="overflow:visible"
       id="Arrow3"
       refX="0"
       refY="0"
       orient="auto-start-reverse"
       inkscape:stockid="Arrow3"
       markerWidth="4.2071066"
       markerHeight="7"
       viewBox="0 0 4.2071068 7"
       inkscape:isstock="true"
       inkscape:collect="always"
       preserveAspectRatio="xMidYMid"><path
         style="fill:none;stroke:context-stroke;stroke-width:1;stroke-linecap:round"
         d="M 3,-3 0,0 3,3"
         id="arrow3"
         transform="rotate(180,0.125,0)"
         sodipodi:nodetypes="ccc" /></marker><linearGradient
       inkscape:collect="always"
       id="linearGradient5739"><stop
         style="stop-color:#ff2700;stop-opacity:1;"
         offset="0"
         id="stop5735" /><stop
         style="stop-color:#1a55ff;stop-opacity:1;"
         offset="1"
         id="stop5737" /></linearGradient><linearGradient
       inkscape:collect="always"
       xlink:href="#linearGradient5739"
       id="linearGradient5741"
       x1="-0.0024713948"
       y1="-0.0010061514"
       x2="0.58372909"
       y2="0.030686"
       gradientUnits="userSpaceOnUse" /><linearGradient
       inkscape:collect="always"
       xlink:href="#linearGradient5739"
       id="linearGradient7546"
       gradientUnits="userSpaceOnUse"
       x1="-0.0024713948"
       y1="-0.0010061514"
       x2="0.58372909"
       y2="0.030686" /></defs><g
     inkscape:label="Calque 1"
     inkscape:groupmode="layer"
     id="layer1"
     transform="translate(-11.90625,-15.875)"><g
       id="g8766"
       transform="translate(3.9687503,4.564063)"><g
         id="Wire"
         transform="matrix(157.97355,0,0,-166.97089,12.296665,31.582002)"
         style="fill:url(#linearGradient5741);fill-opacity:1;stroke-width:0.00488733;stroke-dasharray:none"><path
           id="Wire_f0000"
           d="m 0,0 5e-4,0.002339 5e-4,0.0013881 0.001,0.0020754 0.002,0.0031213 0.004,0.0048112 0.004,0.0041231 0.008,0.0075154 0.01,0.007648 0.01,0.0061068 0.01,0.005147 0.01,0.0044818 0.02,0.0076737 0.02,0.0065673 0.02,0.0056223 0.02,0.0048156 0.02,0.0041347 0.02,0.003498 0.02,0.0028515 0.02,0.0022231 0.02,0.0016875 0.02,0.0012532 0.02,9.176e-4 0.02,6.788e-4 0.02,5.053e-4 0.02,3.222e-4 0.02,1.187e-4 0.02,-1.054e-4 0.02,-3.5e-4 L 0.42,0.0905657 0.44,0.0897175 0.46,0.0886427 0.48,0.0873572 0.5,0.0858772 0.52,0.0842145 0.54,0.0823712 0.56,0.080348 0.58,0.0781451 0.6,0.0757633 0.62,0.0732055 0.64,0.0704822 0.66,0.0676046 0.68,0.0645843 0.7,0.0614329 0.72,0.0581599 0.74,0.0547675 0.76,0.0512565 0.78,0.0476281 0.8,0.0438836 0.82,0.0400245 0.84,0.0360536 0.86,0.031974 0.88,0.0277891 0.9,0.0235025 0.92,0.0191156 0.94,0.0146239 0.96,0.0100232 0.97,0.0076868 0.98,0.0053335 0.99,0.002969 1,5.993e-4 V -5.993e-4 L 0.99,-9.666e-4 0.98,-0.0013339 0.97,-0.0017011 0.96,-0.0020683 0.94,-0.0028028 0.92,-0.0035373 0.9,-0.0042718 0.88,-0.0050063 0.86,-0.0057408 0.84,-0.0064753 0.82,-0.0072098 0.8,-0.0079443 0.78,-0.0086788 0.76,-0.0094133 0.74,-0.0101478 0.72,-0.0108823 0.7,-0.0116169 0.68,-0.0123515 0.66,-0.0130862 0.64,-0.0138207 0.62,-0.0145551 0.6,-0.0152893 0.58,-0.0160232 0.56,-0.0167572 0.54,-0.0174914 0.52,-0.0182262 0.5,-0.0189619 0.48,-0.0196986 0.46,-0.0204353 0.44,-0.0211708 0.42,-0.0219042 0.4,-0.0226341 0.38,-0.0233606 0.36,-0.024087 0.34,-0.0248176 0.32,-0.0255565 0.3,-0.0263079 0.28,-0.0270696 0.26,-0.0278164 0.24,-0.0285181 0.22,-0.0291445 0.2,-0.0296656 0.18,-0.030049 l -0.02,-2.056e-4 -0.02,1.42e-5 -0.02,2.771e-4 -0.02,5.847e-4 -0.02,9.191e-4 -0.02,0.0013318 -0.01,0.0010825 -0.01,0.0015241 -0.01,0.0019155 -0.01,0.0023333 -0.008,0.003299 -0.004,0.0026871 -0.004,0.0037736 -0.002,0.0027013 -0.001,0.0018695 -5e-4,0.0012718 z"
           stroke="#191919"
           stroke-width="0.35 px"
           style="fill:url(#linearGradient7546);fill-opacity:1;fill-rule:evenodd;stroke-width:0.00488733;stroke-linecap:square;stroke-miterlimit:4;stroke-dasharray:none" /><title
           id="title5294">b'Wire'</title></g><path
         style="fill:#5568ff;fill-opacity:1;stroke:#000000;stroke-width:0.79375;stroke-linecap:butt;stroke-linejoin:round;stroke-dasharray:none"
         d="M 27.78125,47.625 33.072917,37.041667 38.364583,47.625 Z"
         id="path5731"
         sodipodi:nodetypes="cccc" /><path
         style="fill:#5568ff;fill-opacity:1;stroke:#000000;stroke-width:0.79375;stroke-linecap:square;stroke-linejoin:round;stroke-dasharray:none"
         d="m 140.22917,43.65625 5.29166,-10.583334 5.29167,10.583334 z"
         id="path5733"
         sodipodi:nodetypes="cccc" /><path
         style="fill:#5568ff;fill-opacity:1;stroke:#000000;stroke-width:0.396875;stroke-linecap:butt;stroke-linejoin:round;stroke-dasharray:none"
         d="M 12.131146,59.531249 V 31.75"
         id="path5820"
         sodipodi:nodetypes="cc" /><g
         id="g5886"
         transform="translate(-5.2916692,-25.135417)"><path
           style="fill:#ffffff;fill-opacity:1;stroke:#000000;stroke-width:0.79375;stroke-linecap:butt;stroke-linejoin:round;stroke-dasharray:none"
           id="path5874"
           sodipodi:type="arc"
           sodipodi:cx="74.083336"
           sodipodi:cy="51.59375"
           sodipodi:rx="6"
           sodipodi:ry="6"
           sodipodi:start="0"
           sodipodi:end="1.5707963"
           sodipodi:arc-type="slice"
           d="m 80.083336,51.59375 a 6,6 0 0 1 -6,6 v -6 z" /><path
           style="fill:#003f7f;fill-opacity:1;stroke:#000000;stroke-width:0.79375;stroke-linecap:butt;stroke-linejoin:round;stroke-dasharray:none"
           id="path5876"
           sodipodi:type="arc"
           sodipodi:cx="-51.59375"
           sodipodi:cy="74.083336"
           sodipodi:rx="6"
           sodipodi:ry="6"
           sodipodi:start="0"
           sodipodi:end="1.5707963"
           sodipodi:arc-type="slice"
           d="m -45.59375,74.083336 a 6,6 0 0 1 -6,6 v -6 z"
           transform="rotate(-90)" /><path
           style="fill:#ffffff;fill-opacity:1;stroke:#000000;stroke-width:0.79375;stroke-linecap:butt;stroke-linejoin:round;stroke-dasharray:none"
           id="path5878"
           sodipodi:type="arc"
           sodipodi:cx="-74.083336"
           sodipodi:cy="-51.59375"
           sodipodi:rx="6"
           sodipodi:ry="6"
           sodipodi:start="0"
           sodipodi:end="1.5707963"
           sodipodi:arc-type="slice"
           d="m -68.083336,-51.59375 a 6,6 0 0 1 -6,6 v -6 z"
           transform="scale(-1)" /><path
           style="fill:#003f7f;fill-opacity:1;stroke:#000000;stroke-width:0.79375;stroke-linecap:butt;stroke-linejoin:round;stroke-dasharray:none"
           id="path5880"
           sodipodi:type="arc"
           sodipodi:cx="51.59375"
           sodipodi:cy="-74.083336"
           sodipodi:rx="6"
           sodipodi:ry="6"
           sodipodi:start="0"
           sodipodi:end="1.5707963"
           sodipodi:arc-type="slice"
           d="m 57.59375,-74.083336 a 6,6 0 0 1 -6,6 v -6 z"
           transform="rotate(90)" /></g><path
         style="fill:#003f7f;fill-opacity:1;stroke:#000000;stroke-width:0.396875;stroke-linecap:butt;stroke-linejoin:round;stroke-dasharray:none"
         d="m 68.791667,59.53125 -10e-7,-26.458334"
         id="path5942"
         sodipodi:nodetypes="cc" /><path
         style="fill:#003f7f;fill-opacity:1;stroke:#000000;stroke-width:0.79375;stroke-linecap:butt;stroke-linejoin:round;stroke-dasharray:none;marker-start:url(#Arrow3);marker-end:url(#marker6277)"
         d="M 12.964583,56.885416 H 67.865625"
         id="path5944"
         sodipodi:nodetypes="cc" /></g></g></svg>
