<?xml version="1.0" encoding="UTF-8" standalone="no"?>
<!-- Created with Inkscape (http://www.inkscape.org/) -->

<svg
   width="630"
   height="200"
   viewBox="0 0 166.6875 52.916667"
   version="1.1"
   id="svg4792"
   inkscape:version="1.2.2 (b0a8486541, 2022-12-01)"
   sodipodi:docname="profil.svg"
   xml:space="preserve"
   xmlns:inkscape="http://www.inkscape.org/namespaces/inkscape"
   xmlns:sodipodi="http://sodipodi.sourceforge.net/DTD/sodipodi-0.dtd"
   xmlns:xlink="http://www.w3.org/1999/xlink"
   xmlns="http://www.w3.org/2000/svg"
   xmlns:svg="http://www.w3.org/2000/svg"><sodipodi:namedview
     id="namedview4794"
     pagecolor="#ffffff"
     bordercolor="#000000"
     borderopacity="0.25"
     inkscape:showpageshadow="2"
     inkscape:pageopacity="0.0"
     inkscape:pagecheckerboard="0"
     inkscape:deskcolor="#d1d1d1"
     inkscape:document-units="mm"
     showgrid="true"
     inkscape:zoom="2.0857143"
     inkscape:cx="315"
     inkscape:cy="100.20548"
     inkscape:window-width="1920"
     inkscape:window-height="1023"
     inkscape:window-x="0"
     inkscape:window-y="0"
     inkscape:window-maximized="1"
     inkscape:current-layer="layer1"><inkscape:grid
       type="xygrid"
       id="grid5276"
       originx="-24.11113"
       originy="-69.982292" /></sodipodi:namedview><defs
     id="defs4789"><marker
       style="overflow:visible"
       id="marker6277"
       refX="0"
       refY="0"
       orient="auto-start-reverse"
       inkscape:stockid="Arrow3"
       markerWidth="4.2071066"
       markerHeight="7"
       viewBox="0 0 4.2071068 7"
       inkscape:isstock="true"
       inkscape:collect="always"
       preserveAspectRatio="xMidYMid"><path
         style="fill:none;stroke:context-stroke;stroke-width:1;stroke-linecap:round"
         d="M 3,-3 0,0 3,3"
         id="path6275"
         transform="rotate(180,0.125,0)"
         sodipodi:nodetypes="ccc" /></marker><marker
       style="overflow:visible"
       id="Arrow3"
       refX="0"
       refY="0"
       orient="auto-start-reverse"
       inkscape:stockid="Arrow3"
       markerWidth="4.2071066"
       markerHeight="7"
       viewBox="0 0 4.2071068 7"
       inkscape:isstock="true"
       inkscape:collect="always"
       preserveAspectRatio="xMidYMid"><path
         style="fill:none;stroke:context-stroke;stroke-width:1;stroke-linecap:round"
         d="M 3,-3 0,0 3,3"
         id="arrow3"
         transform="rotate(180,0.125,0)"
         sodipodi:nodetypes="ccc" /></marker><linearGradient
       inkscape:collect="always"
       id="linearGradient5739"><stop
         style="stop-color:#ff2700;stop-opacity:1;"
         offset="0"
         id="stop5735" /><stop
         style="stop-color:#ff7f1a;stop-opacity:1;"
         offset="0.16919445"
         id="stop36377" /><stop
         style="stop-color:#ffff27;stop-opacity:1;"
         offset="0.33271816"
         id="stop36403" /><stop
         style="stop-color:#00ff00;stop-opacity:1;"
         offset="0.49961764"
         id="stop36429" /><stop
         style="stop-color:#0000ff;stop-opacity:1;"
         offset="0.67346334"
         id="stop36455" /><stop
         style="stop-color:#7f00ff;stop-opacity:1;"
         offset="0.82986659"
         id="stop36481" /><stop
         style="stop-color:#ff00ff;stop-opacity:1;"
         offset="1"
         id="stop5737" /></linearGradient><linearGradient
       inkscape:collect="always"
       xlink:href="#linearGradient5739"
       id="linearGradient7546"
       gradientUnits="userSpaceOnUse"
       x1="-0.0024713948"
       y1="-0.0010061514"
       x2="0.58372909"
       y2="0.030686"
       gradientTransform="matrix(157.97355,0,0,-166.97089,16.265415,36.146065)" /></defs><g
     inkscape:label="Calque 1"
     inkscape:groupmode="layer"
     id="layer1"
     transform="translate(-11.90625,-15.875)"><path
       id="Wire_f0000"
       d="m 16.265415,36.146065 0.07899,-0.390545 0.07899,-0.231772 0.157973,-0.346532 0.315947,-0.521166 0.631894,-0.80333 0.631895,-0.688438 1.263788,-1.254853 1.579735,-1.276993 1.579736,-1.019658 1.579736,-0.859399 1.579735,-0.74833 3.159471,-1.281285 3.159471,-1.096548 3.159471,-0.93876 3.159471,-0.804065 3.159471,-0.690375 3.159471,-0.584064 3.159471,-0.476117 3.159471,-0.371193 3.159471,-0.281764 3.159471,-0.209248 3.159471,-0.153212 3.159471,-0.11334 3.159471,-0.08437 3.159471,-0.0538 3.159471,-0.01982 3.159471,0.0176 3.159471,0.05844 3.159471,0.1011 3.159471,0.141625 3.159471,0.17946 3.159471,0.214642 3.159471,0.247116 3.159471,0.277623 3.159473,0.307777 3.15947,0.337816 3.15947,0.36782 3.15947,0.397691 3.15948,0.427079 3.15947,0.454711 3.15947,0.480476 3.15947,0.504302 3.15947,0.526192 3.15947,0.546496 3.15947,0.566432 3.15947,0.586235 3.15947,0.605837 3.15947,0.625222 3.15948,0.644358 3.15947,0.663024 3.15947,0.681175 3.15947,0.698756 3.15947,0.715738 3.15947,0.732484 3.15947,0.749983 3.15947,0.768183 1.57974,0.390111 1.57973,0.392933 1.57974,0.394802 1.57973,0.395671 v 0.200132 l -1.57973,0.06133 -1.57974,0.06133 -1.57973,0.06131 -1.57974,0.06131 -3.15947,0.12264 -3.15947,0.12264 -3.15947,0.12264 -3.15947,0.12264 -3.15947,0.12264 -3.15947,0.122641 -3.15947,0.12264 -3.15948,0.12264 -3.15947,0.12264 -3.15947,0.12264 -3.15947,0.12264 -3.15947,0.12264 -3.15947,0.122657 -3.15947,0.122657 -3.15947,0.122673 -3.15947,0.122641 -3.15947,0.122623 -3.15948,0.12259 -3.15947,0.12254 -3.15947,0.122557 -3.15947,0.12259 -3.159473,0.12269 -3.159471,0.12284 -3.159471,0.123008 -3.159471,0.123007 -3.159471,0.122807 -3.159471,0.122457 -3.159471,0.121872 -3.159471,0.121304 -3.159471,0.121288 -3.159471,0.121989 -3.159471,0.123375 -3.159471,0.125461 -3.159471,0.127182 -3.159471,0.124694 -3.159471,0.117164 -3.159471,0.10459 -3.159471,0.08701 -3.159471,0.06402 -3.159471,0.03433 -3.159471,-0.0024 -3.159471,-0.04627 -3.159471,-0.09763 -3.159471,-0.153463 -3.159471,-0.222372 -1.579736,-0.180746 -1.579735,-0.25448 -1.579736,-0.319833 -1.579735,-0.389593 -1.263788,-0.550837 -0.631895,-0.448667 -0.631894,-0.630082 -0.315947,-0.451038 -0.157973,-0.312152 -0.07899,-0.212354 z"
       stroke="#191919"
       stroke-width="0.35 px"
       style="fill:url(#linearGradient7546);fill-opacity:1;fill-rule:evenodd;stroke-width:0.793751;stroke-linecap:square;stroke-miterlimit:4;stroke-dasharray:none" /><path
       style="fill:#00ac00;fill-opacity:1;stroke:#000000;stroke-width:0.79375;stroke-linecap:butt;stroke-linejoin:round;stroke-dasharray:none"
       d="M 31.75,52.189063 37.041667,41.60573 42.333333,52.189063 Z"
       id="path5731"
       sodipodi:nodetypes="cccc" /><path
       style="fill:#00ac00;fill-opacity:1;stroke:#000000;stroke-width:0.79375;stroke-linecap:square;stroke-linejoin:round;stroke-dasharray:none"
       d="m 144.19792,48.220313 5.29166,-10.583334 5.29167,10.583334 z"
       id="path5733"
       sodipodi:nodetypes="cccc" /><path
       style="fill:#5568ff;fill-opacity:1;stroke:#000000;stroke-width:0.396875;stroke-linecap:butt;stroke-linejoin:round;stroke-dasharray:none"
       d="M 16.099896,64.095312 V 36.314063"
       id="path5820"
       sodipodi:nodetypes="cc" /><g
       id="g5886"
       transform="translate(-1.3229189,-20.571354)"><path
         style="fill:#ffffff;fill-opacity:1;stroke:#000000;stroke-width:0.79375;stroke-linecap:butt;stroke-linejoin:round;stroke-dasharray:none"
         id="path5874"
         sodipodi:type="arc"
         sodipodi:cx="74.083336"
         sodipodi:cy="51.59375"
         sodipodi:rx="6"
         sodipodi:ry="6"
         sodipodi:start="0"
         sodipodi:end="1.5707963"
         sodipodi:arc-type="slice"
         d="m 80.083336,51.59375 a 6,6 0 0 1 -6,6 v -6 z" /><path
         style="fill:#00ac00;fill-opacity:1;stroke:#000000;stroke-width:0.79375;stroke-linecap:butt;stroke-linejoin:round;stroke-dasharray:none"
         id="path5876"
         sodipodi:type="arc"
         sodipodi:cx="-51.59375"
         sodipodi:cy="74.083336"
         sodipodi:rx="6"
         sodipodi:ry="6"
         sodipodi:start="0"
         sodipodi:end="1.5707963"
         sodipodi:arc-type="slice"
         d="m -45.59375,74.083336 a 6,6 0 0 1 -6,6 v -6 z"
         transform="rotate(-90)" /><path
         style="fill:#ffffff;fill-opacity:1;stroke:#000000;stroke-width:0.79375;stroke-linecap:butt;stroke-linejoin:round;stroke-dasharray:none"
         id="path5878"
         sodipodi:type="arc"
         sodipodi:cx="-74.083336"
         sodipodi:cy="-51.59375"
         sodipodi:rx="6"
         sodipodi:ry="6"
         sodipodi:start="0"
         sodipodi:end="1.5707963"
         sodipodi:arc-type="slice"
         d="m -68.083336,-51.59375 a 6,6 0 0 1 -6,6 v -6 z"
         transform="scale(-1)" /><path
         style="fill:#00ac00;fill-opacity:1;stroke:#000000;stroke-width:0.79375;stroke-linecap:butt;stroke-linejoin:round;stroke-dasharray:none"
         id="path5880"
         sodipodi:type="arc"
         sodipodi:cx="51.59375"
         sodipodi:cy="-74.083336"
         sodipodi:rx="6"
         sodipodi:ry="6"
         sodipodi:start="0"
         sodipodi:end="1.5707963"
         sodipodi:arc-type="slice"
         d="m 57.59375,-74.083336 a 6,6 0 0 1 -6,6 v -6 z"
         transform="rotate(90)" /></g><path
       style="fill:#003f7f;fill-opacity:1;stroke:#000000;stroke-width:0.396875;stroke-linecap:butt;stroke-linejoin:round;stroke-dasharray:none"
       d="m 72.760417,64.095313 -10e-7,-26.458334"
       id="path5942"
       sodipodi:nodetypes="cc" /><path
       style="fill:#003f7f;fill-opacity:1;stroke:#000000;stroke-width:0.79375;stroke-linecap:butt;stroke-linejoin:round;stroke-dasharray:none;marker-start:url(#Arrow3);marker-end:url(#marker6277)"
       d="M 16.933333,61.449479 H 71.834375"
       id="path5944"
       sodipodi:nodetypes="cc" /></g></svg>
